<?xml version="1.0" standalone="no"?>
<!DOCTYPE svg PUBLIC "-//W3C//DTD SVG 20010904//EN"
 "http://www.w3.org/TR/2001/REC-SVG-20010904/DTD/svg10.dtd">
<svg version="1.0" xmlns="http://www.w3.org/2000/svg"
 width="1200.000000pt" height="1200.000000pt" viewBox="0 0 1200.000000 1200.000000"
 preserveAspectRatio="xMidYMid meet">

<g transform="translate(0.000000,1200.000000) scale(0.100000,-0.100000)"
fill="#000000" stroke="none">
<path d="M3345 6000 c0 -399 1 -562 2 -362 2 199 2 525 0 725 -1 199 -2 36 -2
-363z"/>
<path d="M2044 6407 c-145 -37 -260 -165 -285 -315 -5 -31 -9 -149 -9 -262 l0
-204 63 61 62 62 43 -29 c66 -44 144 -70 214 -70 59 0 63 -2 110 -46 77 -72
145 -98 253 -99 107 0 155 13 225 61 l52 36 60 -59 59 -58 -3 250 c-3 245 -4
251 -30 306 -64 138 -202 229 -350 229 -55 0 -60 2 -100 42 -90 87 -240 126
-364 95z m243 -77 c115 -57 184 -168 184 -298 0 -133 -70 -243 -191 -300 -116
-55 -254 -36 -357 48 l-47 40 -31 -30 c-17 -17 -35 -30 -39 -30 -4 0 -6 78 -4
173 3 160 5 176 29 227 86 184 280 256 456 170z m354 -142 c72 -33 134 -94
168 -167 25 -53 26 -66 29 -236 l4 -180 -36 34 -35 34 -54 -41 c-78 -61 -119
-76 -212 -76 -68 -1 -90 3 -142 28 -54 25 -114 71 -102 79 2 1 26 12 52 25
l48 22 42 -22 c57 -29 147 -29 204 0 70 37 123 117 123 190 0 21 -3 22 -110
22 -60 0 -110 3 -110 8 0 4 3 17 6 30 5 18 11 21 28 16 33 -11 59 -7 73 12 31
43 0 89 -53 81 -32 -5 -33 -4 -39 36 -4 23 -16 64 -26 91 l-18 48 52 -4 c29
-2 77 -16 108 -30z m39 -358 c-30 -104 -163 -162 -258 -112 l-33 18 22 20 c12
10 35 38 51 62 l29 42 99 0 99 0 -9 -30z"/>
<path d="M2023 6208 c-44 -21 -30 -90 18 -96 53 -6 80 62 37 92 -26 18 -26 18
-55 4z"/>
<path d="M2182 6172 c-56 -36 -52 -56 12 -60 28 -2 60 -1 73 3 31 7 30 35 -1
35 -19 0 -22 4 -18 25 6 32 -10 31 -66 -3z"/>
<path d="M1925 6057 c-11 -26 4 -85 31 -128 75 -119 253 -134 348 -29 37 41
60 101 54 138 -6 39 -20 29 -38 -27 -23 -68 -46 -100 -95 -125 -55 -28 -121
-26 -176 6 -45 26 -89 88 -89 125 0 11 -6 28 -14 39 -14 18 -15 18 -21 1z"/>
<path d="M4413 6393 l27 -4 0 -289 0 -289 -27 -4 c-16 -2 26 -4 92 -4 66 -1
112 1 103 4 -39 10 -33 279 7 323 22 24 51 26 59 4 3 -9 6 -85 6 -169 0 -138
-2 -154 -17 -158 -10 -3 34 -5 97 -4 63 0 105 2 93 4 -23 4 -23 7 -23 144 0
165 -11 202 -64 224 -20 8 -50 15 -68 15 -35 0 -98 -32 -98 -50 0 -5 -4 -10
-10 -10 -6 0 -10 52 -10 135 l0 135 -97 -1 c-54 -1 -86 -4 -70 -6z"/>
<path d="M7023 6393 l27 -4 0 -285 0 -284 -25 0 c-14 0 -25 -4 -25 -10 0 -6
45 -10 115 -10 70 0 115 4 115 10 0 6 -6 10 -14 10 -30 0 -32 229 -3 289 15
31 40 46 61 38 14 -6 16 -27 16 -167 0 -136 -2 -160 -15 -160 -8 0 -15 -4 -15
-10 0 -6 43 -10 110 -10 67 0 110 4 110 10 0 6 -9 10 -20 10 -19 0 -20 7 -20
138 0 192 -23 232 -133 232 -41 0 -53 -5 -79 -30 -16 -16 -31 -30 -34 -30 -2
0 -4 61 -4 135 l0 135 -97 -1 c-54 -1 -86 -4 -70 -6z"/>
<path d="M6511 6378 c-33 -18 -46 -60 -29 -95 22 -47 93 -56 132 -17 19 19 21
73 3 97 -16 23 -76 31 -106 15z"/>
<path d="M4032 6352 c-60 -22 -94 -50 -128 -107 -48 -83 -49 -252 -2 -337 53
-93 174 -132 323 -103 58 11 82 12 92 4 11 -9 13 5 13 80 0 50 -2 91 -4 91 -2
0 -18 -24 -34 -53 -63 -111 -137 -145 -201 -91 -46 38 -62 105 -62 254 0 171
19 228 86 256 59 24 124 -17 171 -108 13 -27 27 -48 29 -48 3 0 5 37 5 83 l0
82 -37 1 c-21 1 -74 5 -118 8 -65 5 -90 3 -133 -12z"/>
<path d="M7732 6353 c-5 -10 -51 -134 -103 -275 -74 -202 -98 -258 -111 -258
-10 0 -18 -4 -18 -10 0 -6 27 -10 60 -10 33 0 60 4 60 10 0 6 -13 10 -30 10
-16 0 -30 3 -29 8 0 4 13 41 28 82 l27 75 81 3 81 3 26 -78 c14 -43 26 -81 26
-86 0 -4 -11 -7 -25 -7 -14 0 -25 -4 -25 -10 0 -6 50 -10 130 -10 80 0 130 4
130 10 0 6 -8 10 -18 10 -15 0 -37 52 -118 273 l-100 272 -31 3 c-23 2 -34 -2
-41 -15z m33 -324 c6 -18 1 -19 -64 -19 -39 0 -71 3 -71 6 0 7 39 117 60 169
12 30 12 30 41 -53 15 -46 31 -92 34 -103z"/>
<path d="M5645 6353 c16 -3 39 -57 121 -281 l100 -277 35 -3 35 -3 50 176 c27
96 51 175 54 175 3 0 32 -79 63 -175 l58 -175 34 0 c32 0 35 3 46 43 6 23 39
148 74 277 61 232 62 235 91 241 16 4 -9 6 -56 6 -47 0 -66 -2 -42 -4 23 -2
42 -6 42 -9 0 -5 -61 -250 -81 -328 -6 -21 -12 -36 -15 -34 -5 6 -114 348
-114 359 0 4 10 10 23 12 12 2 -34 4 -103 4 -69 0 -115 -2 -103 -4 17 -3 27
-21 47 -81 l26 -77 -31 -107 c-17 -60 -34 -108 -38 -108 -5 0 -115 319 -123
355 -1 6 11 13 28 16 16 4 -32 7 -106 6 -74 0 -126 -2 -115 -4z"/>
<path d="M5423 6303 l-63 -14 0 -54 c0 -51 -1 -54 -27 -58 l-28 -4 28 -2 27
-1 0 -150 c0 -89 5 -159 11 -174 15 -33 62 -51 125 -50 64 2 92 17 110 59 22
53 16 65 -9 20 -16 -29 -30 -41 -50 -43 -40 -5 -47 26 -47 193 l0 144 58 4 57
3 -57 2 -58 2 0 70 c0 39 -3 70 -7 69 -5 0 -36 -7 -70 -16z"/>
<path d="M6788 6303 l-58 -15 0 -53 c0 -51 -1 -54 -27 -58 l-28 -4 28 -2 27
-1 0 -144 c0 -80 4 -156 10 -170 5 -14 23 -32 39 -41 36 -18 119 -20 156 -3
30 14 55 56 54 90 -1 20 -2 20 -9 -6 -17 -57 -79 -90 -94 -50 -3 9 -6 85 -6
169 l0 154 53 4 52 3 -52 2 -53 2 0 70 c0 80 3 78 -92 53z"/>
<path d="M4987 6176 c-20 -7 -44 -19 -52 -26 -18 -15 -20 -91 -3 -108 17 -17
84 -15 102 4 21 21 20 64 -1 80 -22 16 -7 47 26 52 28 5 41 -31 41 -117 l0
-68 -66 -6 c-108 -10 -149 -47 -134 -121 8 -43 50 -70 110 -70 37 0 55 6 73
22 21 20 24 20 39 6 38 -38 156 -35 176 4 11 20 24 97 15 89 -3 -3 -8 -21 -12
-39 -5 -24 -12 -33 -26 -33 -19 0 -20 9 -25 135 -6 140 -13 164 -54 190 -31
19 -163 23 -209 6z m103 -326 c-26 -48 -54 -3 -43 68 3 18 15 39 27 48 21 14
21 13 24 -40 2 -31 -2 -65 -8 -76z"/>
<path d="M8304 6180 c-12 -5 -29 -19 -38 -32 l-16 -22 0 27 0 27 -97 -1 c-54
-1 -88 -4 -75 -6 22 -4 22 -6 22 -179 0 -167 -1 -174 -20 -174 -11 0 -20 -4
-20 -10 0 -6 43 -10 110 -10 67 0 110 4 110 10 0 6 -7 10 -16 10 -13 0 -15 18
-12 144 3 126 5 147 22 165 11 12 29 21 40 19 20 -3 21 -10 24 -165 2 -141 0
-163 -13 -163 -8 0 -15 -4 -15 -10 0 -6 43 -10 109 -10 63 0 112 4 116 10 3 6
-5 10 -19 10 l-25 0 -3 156 -3 156 -33 29 c-26 24 -41 29 -80 28 -26 0 -57 -4
-68 -9z"/>
<path d="M9035 6175 c-55 -20 -91 -62 -104 -126 -21 -94 5 -173 72 -223 22
-16 47 -22 107 -25 151 -6 214 52 214 200 0 94 -21 134 -84 167 -52 26 -142
29 -205 7z m117 -12 c32 -36 34 -297 3 -339 -16 -23 -61 -11 -71 19 -4 12 -8
81 -8 153 0 108 3 136 17 158 20 30 38 33 59 9z"/>
<path d="M9350 6180 c0 -5 11 -10 25 -10 l25 0 0 -174 0 -175 -27 -4 c-16 -2
26 -4 92 -4 66 0 109 2 96 4 l-23 5 4 131 c4 137 18 187 54 201 38 15 44 -9
44 -174 0 -143 -2 -159 -17 -163 -10 -3 34 -5 97 -4 63 0 105 2 93 4 -23 4
-23 7 -23 139 0 193 -22 234 -127 234 -44 0 -58 -5 -88 -31 l-35 -31 0 31 0
31 -95 0 c-57 0 -95 -4 -95 -10z"/>
<path d="M9955 6176 c-37 -17 -80 -62 -94 -99 -14 -36 -14 -128 0 -164 29 -77
113 -120 218 -110 70 6 106 27 132 79 24 46 11 51 -14 5 -21 -38 -42 -53 -89
-62 -63 -12 -108 49 -108 148 l0 37 116 0 117 0 -7 42 c-16 101 -63 138 -170
138 -39 -1 -84 -7 -101 -14z m115 -11 c6 -8 14 -41 17 -75 l6 -60 -48 0 -48 0
6 60 c5 61 19 90 42 90 7 0 18 -7 25 -15z"/>
<path d="M6453 6173 l27 -4 0 -175 0 -174 -25 0 c-14 0 -25 -4 -25 -10 0 -6
47 -10 120 -10 73 0 120 4 120 10 0 6 -8 10 -19 10 -24 0 -31 50 -31 226 l0
134 -97 -1 c-54 -1 -86 -4 -70 -6z"/>
<path d="M8516 6173 c18 -3 34 -36 90 -189 l68 -184 34 0 c30 0 33 -2 27 -22
-29 -97 -84 -168 -120 -154 -20 7 -20 46 0 46 23 0 18 47 -7 64 -32 22 -55 20
-83 -9 -31 -30 -32 -56 -2 -90 18 -22 32 -27 70 -27 26 -1 59 5 73 12 45 24
47 30 201 477 19 56 29 73 46 76 12 2 -5 4 -38 4 -33 0 -47 -2 -32 -4 17 -3
27 -9 24 -16 -2 -7 -21 -63 -41 -124 -21 -62 -41 -113 -45 -113 -7 0 -81 216
-81 237 0 6 10 14 23 16 12 2 -34 4 -103 4 -69 0 -115 -2 -104 -4z"/>
</g>
</svg>
